<svg width="25" height="24" viewBox="0 0 25 24" fill="none"
    xmlns="http://www.w3.org/2000/svg">
    <path d="M24.5455 18.588C24.1962 18.7199 23.8107 18.7195 23.4616 18.5869C23.1126 18.4543 22.8241 18.1986 22.6505 17.868L19.2005 13.097L18.7005 12.43L14.6975 17.874C14.5345 18.1909 14.2616 18.4375 13.93 18.5678C13.5983 18.6981 13.2306 18.7032 12.8955 18.582L18.0535 11.662L13.2555 5.41102C13.6005 5.2867 13.9778 5.28505 14.3238 5.40636C14.6699 5.52766 14.9636 5.76451 15.1555 6.07702L18.7315 10.907L22.3275 6.09702C22.4918 5.78581 22.7647 5.54581 23.0943 5.42265C23.424 5.29949 23.7874 5.30176 24.1155 5.42902L22.2535 7.90002L19.7315 11.183C19.6614 11.2455 19.6054 11.3221 19.567 11.4077C19.5287 11.4934 19.5088 11.5862 19.5088 11.68C19.5088 11.7739 19.5287 11.8667 19.567 11.9523C19.6054 12.038 19.6614 12.1145 19.7315 12.177L24.5355 18.589L24.5455 18.588ZM0.547484 11.576L0.967484 9.50102C2.12148 5.39802 6.82549 3.69102 10.0615 6.23102C11.9565 7.72002 12.4295 9.82802 12.3365 12.204H1.66148C1.48848 16.447 4.55048 19.009 8.46549 17.7C9.10005 17.4714 9.66805 17.0891 10.1186 16.5872C10.5692 16.0853 10.8884 15.4795 11.0475 14.824C11.2545 14.158 11.5955 14.044 12.2215 14.236C12.117 15.0483 11.8297 15.8264 11.3813 16.5118C10.9329 17.1971 10.335 17.7719 9.63249 18.193C8.47198 18.8282 7.14033 19.0799 5.82805 18.9124C4.51577 18.7448 3.29013 18.1664 2.32648 17.26C1.37383 16.1872 0.797921 14.8324 0.686484 13.402C0.686484 13.167 0.606484 12.947 0.552484 12.736C0.547607 12.3497 0.545273 11.9634 0.545484 11.577L0.547484 11.576ZM1.67448 11.29H11.3285C11.2685 8.21402 9.32749 6.03202 6.73848 6.01202C3.85648 5.97202 1.79448 8.10602 1.66748 11.276L1.67448 11.29Z" fill="#baa8ff"/>
</svg>
