<svg width="24" height="24" viewBox="0 0 24 24" fill="none"
    xmlns="http://www.w3.org/2000/svg">
    <path d="M7.02997 0.0840095C5.75297 0.14401 4.88097 0.34801 4.11997 0.64701C3.31969 0.950161 2.59493 1.42378 1.99597 2.03501C1.38727 2.63562 0.916394 3.36138 0.615972 4.16201C0.320972 4.92601 0.119972 5.80001 0.0639722 7.07601C0.0079722 8.35201 -0.0050278 8.76401 0.000972204 12.023C0.0069722 15.282 0.0219722 15.69 0.0839722 16.97C0.144972 18.247 0.347972 19.119 0.646972 19.881C0.954972 20.67 1.36697 21.338 2.03497 22.004C2.63617 22.613 3.36263 23.0838 4.16397 23.384C4.92697 23.679 5.79997 23.88 7.07697 23.936C8.35497 23.992 8.76597 24.005 12.024 23.999C15.282 23.993 15.692 23.978 16.971 23.917C18.251 23.857 19.118 23.652 19.881 23.354C20.6809 23.0507 21.4053 22.5771 22.004 21.966C22.6129 21.3648 23.0838 20.6384 23.384 19.837C23.679 19.074 23.88 18.201 23.935 16.925C23.991 15.645 24.005 15.235 23.998 11.977C23.992 8.71901 23.978 8.31001 23.917 7.03001C23.857 5.75001 23.653 4.88201 23.353 4.11901C23.05 3.31917 22.5767 2.59478 21.966 1.99601C21.3651 1.38718 20.639 0.916303 19.838 0.61601C19.074 0.32201 18.202 0.12001 16.924 0.0660095C15.647 0.00900954 15.236 -0.00599046 11.977 9.54152e-06C8.71797 0.00600954 8.30997 0.0210095 7.02997 0.0840095ZM7.16997 21.777C5.99997 21.727 5.36497 21.532 4.94197 21.369C4.41993 21.1783 3.94757 20.8724 3.55997 20.474C3.16032 20.0881 2.85271 19.6171 2.65997 19.096C2.49497 18.673 2.29697 18.038 2.24297 16.868C2.18297 15.604 2.17097 15.224 2.16297 12.02C2.15697 8.81601 2.16897 8.43701 2.22397 7.17201C2.27397 6.00301 2.46997 5.36701 2.63197 4.94401C2.84797 4.38301 3.10897 3.98401 3.52697 3.56201C3.9132 3.16223 4.38454 2.85461 4.90597 2.66201C5.32897 2.49701 5.96297 2.30101 7.13297 2.24501C8.39797 2.18501 8.77697 2.17301 11.981 2.16501C15.184 2.15901 15.564 2.17101 16.831 2.22701C17.999 2.27701 18.635 2.47101 19.058 2.63501C19.618 2.85101 20.018 3.11001 20.44 3.53001C20.862 3.95001 21.121 4.34701 21.34 4.90801C21.505 5.33001 21.702 5.96401 21.757 7.13501C21.817 8.40001 21.831 8.78001 21.837 11.983C21.842 15.186 21.831 15.566 21.776 16.831C21.725 18.001 21.531 18.636 21.368 19.061C21.152 19.621 20.891 20.021 20.472 20.441C20.086 20.8407 19.615 21.1483 19.094 21.341C18.672 21.506 18.036 21.703 16.868 21.759C15.602 21.819 15.223 21.831 12.018 21.838C8.81297 21.845 8.43597 21.831 7.16997 21.777ZM16.953 5.58601C16.9534 5.87086 17.0382 6.14919 17.1968 6.3858C17.3554 6.6224 17.5807 6.80666 17.844 6.91525C18.1073 7.02385 18.3969 7.0519 18.6762 6.99587C18.9555 6.93984 19.2119 6.80224 19.413 6.60047C19.614 6.3987 19.7507 6.14184 19.8058 5.86236C19.8609 5.58289 19.8318 5.29336 19.7223 5.0304C19.6128 4.76745 19.4278 4.54288 19.1906 4.3851C18.9534 4.22732 18.6748 4.14342 18.39 4.14401C18.0082 4.1448 17.6424 4.29714 17.373 4.56754C17.1035 4.83794 16.9524 5.20427 16.953 5.58601ZM5.83897 12.012C5.84216 13.6461 6.49436 15.2121 7.65212 16.3653C8.80988 17.5186 10.3783 18.1647 12.0125 18.1615C13.6466 18.1583 15.2125 17.5061 16.3658 16.3484C17.5191 15.1906 18.1652 13.6221 18.162 11.988C18.1384 10.3674 17.4773 8.82124 16.3218 7.68463C15.1662 6.54801 13.6094 5.91244 11.9886 5.9156C10.3678 5.91875 8.81348 6.56039 7.66241 7.70149C6.51134 8.8426 5.85622 10.3913 5.83897 12.012ZM7.99997 12.008C7.99839 11.2169 8.23144 10.4431 8.66965 9.78439C9.10786 9.12571 9.73155 8.61178 10.4618 8.30757C11.1921 8.00336 11.9962 7.92254 12.7725 8.07532C13.5487 8.22811 14.2622 8.60765 14.8227 9.16594C15.3833 9.72423 15.7656 10.4362 15.9215 11.2118C16.0774 11.9874 15.9998 12.7918 15.6985 13.5234C15.3973 14.2549 14.8858 14.8806 14.2289 15.3214C13.572 15.7623 12.7991 15.9984 12.008 16C11.4827 16.0011 10.9623 15.8986 10.4766 15.6986C9.99092 15.4985 9.54938 15.2048 9.1772 14.8341C8.80502 14.4634 8.5095 14.023 8.30751 13.5381C8.10552 13.0532 8.00102 12.5333 7.99997 12.008Z" fill="#baa8ff"/>
</svg>
