<svg width="31" height="24" viewBox="0 0 31 24" fill="none"
    xmlns="http://www.w3.org/2000/svg">
    <path d="M3.63639 23.6364C2.83639 23.6364 2.15178 23.3518 1.58257 22.7826C1.01336 22.2133 0.728265 21.5283 0.727295 20.7273V3.27274C0.727295 2.47274 1.01239 1.78813 1.58257 1.21892C2.15275 0.649708 2.83736 0.364617 3.63639 0.363647H26.9091C27.7091 0.363647 28.3942 0.648738 28.9644 1.21892C29.5346 1.7891 29.8192 2.47371 29.8182 3.27274V20.7273C29.8182 21.5273 29.5336 22.2124 28.9644 22.7826C28.3952 23.3527 27.7101 23.6373 26.9091 23.6364H3.63639ZM15.2727 13.4546L3.63639 6.18183V20.7273H26.9091V6.18183L15.2727 13.4546ZM15.2727 10.5455L26.9091 3.27274H3.63639L15.2727 10.5455ZM3.63639 6.18183V3.27274V20.7273V6.18183Z" fill="#baa8ff"/>
</svg>
