<svg width="25" height="24" viewBox="0 0 25 24" fill="none"
    xmlns="http://www.w3.org/2000/svg">
    <path d="M12.5434 24C12.2224 24 11.9024 23.916 11.6214 23.753L8.68544 22.016C8.24744 21.771 8.46144 21.684 8.60544 21.633C9.19044 21.43 9.30844 21.383 9.93344 21.029C9.99844 20.992 10.0844 21.006 10.1514 21.046L12.4074 22.385C12.4493 22.4072 12.496 22.4189 12.5434 22.4189C12.5909 22.4189 12.6376 22.4072 12.6794 22.385L21.4744 17.309C21.5152 17.2841 21.549 17.2491 21.5724 17.2074C21.5959 17.1658 21.6083 17.1188 21.6084 17.071V6.92099C21.6087 6.87221 21.5961 6.82422 21.5721 6.78178C21.5481 6.73933 21.5134 6.7039 21.4714 6.67899L12.6804 1.60699C12.639 1.58405 12.5923 1.57202 12.5449 1.57202C12.4975 1.57202 12.4509 1.58405 12.4094 1.60699L3.62044 6.67999C3.57828 6.70456 3.54327 6.73973 3.51889 6.782C3.49451 6.82428 3.4816 6.87219 3.48144 6.92099V17.071C3.48164 17.119 3.49462 17.166 3.51905 17.2074C3.54348 17.2487 3.57848 17.2827 3.62044 17.306L6.02944 18.698C7.33644 19.352 8.13744 18.582 8.13744 17.808V7.78699C8.13744 7.64499 8.25144 7.53399 8.39344 7.53399H9.50844C9.64744 7.53399 9.76344 7.64599 9.76344 7.78699V17.808C9.76344 19.553 8.81344 20.553 7.15944 20.553C6.65144 20.553 6.25044 20.553 5.13344 20.002L2.82544 18.675C2.54517 18.5113 2.31261 18.2771 2.15087 17.9958C1.98912 17.7144 1.90382 17.3956 1.90344 17.071V6.92099C1.90344 6.26199 2.25644 5.64599 2.82544 5.31799L11.6204 0.235988C11.9039 0.0814195 12.2216 0.000427246 12.5444 0.000427246C12.8673 0.000427246 13.185 0.0814195 13.4684 0.235988L22.2624 5.31799C22.8324 5.64699 23.1864 6.26199 23.1864 6.92099V17.071C23.1859 17.3957 23.1003 17.7147 22.9382 17.9961C22.776 18.2775 22.5431 18.5116 22.2624 18.675L13.4684 23.753C13.1884 23.916 12.8694 24 12.5434 24ZM19.6444 13.993C19.6444 12.093 18.3604 11.587 15.6574 11.23C12.9264 10.869 12.6484 10.682 12.6484 10.043C12.6484 9.51499 12.8834 8.80999 14.9064 8.80999C16.7134 8.80999 17.3794 9.19899 17.6534 10.417C17.6659 10.4733 17.6972 10.5236 17.7421 10.5598C17.7869 10.5959 17.8428 10.6158 17.9004 10.616H19.0414C19.0763 10.6156 19.1107 10.6083 19.1427 10.5944C19.1746 10.5805 19.2034 10.5603 19.2274 10.535C19.2514 10.5087 19.2698 10.4777 19.2813 10.4439C19.2928 10.4102 19.2973 10.3745 19.2944 10.339C19.1174 8.24099 17.7234 7.26299 14.9064 7.26299C12.3984 7.26299 10.9024 8.32099 10.9024 10.096C10.9024 12.021 12.3904 12.553 14.7974 12.791C17.6774 13.073 17.9004 13.494 17.9004 14.06C17.9004 15.043 17.1114 15.462 15.2584 15.462C12.9314 15.462 12.4194 14.878 12.2474 13.72C12.2379 13.6598 12.2071 13.6051 12.1607 13.5657C12.1143 13.5262 12.0553 13.5047 11.9944 13.505H10.8574C10.824 13.5045 10.7908 13.5106 10.7598 13.5231C10.7288 13.5356 10.7007 13.5542 10.677 13.5778C10.6533 13.6014 10.6346 13.6295 10.622 13.6605C10.6093 13.6914 10.603 13.7246 10.6034 13.758C10.6034 15.24 11.4094 17.006 15.2584 17.006C18.0464 17.007 19.6444 15.91 19.6444 13.993Z" fill="#baa8ff"/>
</svg>
