<svg width="25" height="24" viewBox="0 0 25 24" fill="none"
    xmlns="http://www.w3.org/2000/svg">
    <path d="M14.7955 0.18L15.6955 0.38L16.4255 0.64L17.0155 0.94L17.4655 1.26L17.8055 1.6L18.0555 1.94L18.2155 2.27L18.3155 2.57L18.3555 2.83L18.3755 3.03L18.3655 3.16V8.5L18.3155 9.13L18.1855 9.68L17.9755 10.14L17.7155 10.52L17.4155 10.83L17.0855 11.08L16.7355 11.27L16.3855 11.41L16.0555 11.51L15.7555 11.58L15.4955 11.62L15.2855 11.64H9.31547L8.62547 11.69L8.03547 11.83L7.53547 12.05L7.12547 12.32L6.79547 12.64L6.52547 12.99L6.32547 13.35L6.17547 13.72L6.07547 14.07L6.00547 14.39L5.96547 14.66L5.94547 14.87V17.93H3.71547L3.50547 17.9L3.22547 17.83L2.90547 17.71L2.55547 17.53L2.19547 17.27L1.83547 16.91L1.48547 16.45L1.16547 15.86L0.885474 15.13L0.675474 14.25L0.535474 13.2L0.485474 11.97L0.545474 10.75L0.705474 9.71L0.945474 8.84L1.26547 8.13L1.62547 7.56L2.02547 7.12L2.44547 6.79L2.86547 6.55L3.26547 6.39L3.62547 6.29L3.94547 6.24L4.18547 6.23H4.34547L4.40547 6.24H12.5655V5.41H6.72547L6.71547 2.66L6.69547 2.29L6.74547 1.95L6.85547 1.64L7.02547 1.36L7.27547 1.1L7.58547 0.87L7.96547 0.67L8.40547 0.49L8.91547 0.34L9.49547 0.22L10.1355 0.12L10.8455 0.06L11.6155 0.02L12.4555 0L13.7255 0.05L14.7955 0.18ZM8.49547 2.16L8.26547 2.49L8.18547 2.9L8.26547 3.31L8.49547 3.65L8.82547 3.87L9.23547 3.96L9.64547 3.87L9.97547 3.65L10.2055 3.31L10.2855 2.9L10.2055 2.49L9.97547 2.16L9.64547 1.94L9.23547 1.85L8.82547 1.94L8.49547 2.16ZM21.5855 6.11L21.8655 6.17L22.1855 6.29L22.5355 6.47L22.8955 6.74L23.2555 7.09L23.6055 7.56L23.9255 8.15L24.2055 8.88L24.4155 9.76L24.5555 10.8L24.6055 12.03L24.5455 13.26L24.3855 14.3L24.1455 15.16L23.8255 15.87L23.4655 16.44L23.0655 16.89L22.6455 17.22L22.2255 17.46L21.8255 17.62L21.4655 17.71L21.1455 17.76L20.9055 17.78L20.7455 17.77H12.5255V18.59H18.3655L18.3755 21.35L18.3955 21.71L18.3455 22.05L18.2355 22.36L18.0655 22.65L17.8155 22.9L17.5055 23.14L17.1255 23.34L16.6855 23.51L16.1755 23.66L15.5955 23.79L14.9555 23.88L14.2455 23.95L13.4755 23.99L12.6355 24L11.3655 23.96L10.2955 23.82L9.39547 23.62L8.66547 23.37L8.07547 23.07L7.62547 22.74L7.28547 22.4L7.03547 22.06L6.87547 21.73L6.77547 21.43L6.73547 21.18L6.71547 20.98L6.72547 20.85V15.51L6.77547 14.87L6.90547 14.33L7.11547 13.87L7.37547 13.49L7.67547 13.17L8.00547 12.93L8.35547 12.73L8.70547 12.59L9.03547 12.49L9.33547 12.43L9.59547 12.39L9.80547 12.37L9.93547 12.36H15.7755L16.4655 12.31L17.0555 12.17L17.5555 11.96L17.9655 11.68L18.2955 11.36L18.5655 11.01L18.7655 10.65L18.9155 10.29L19.0155 9.94L19.0855 9.62L19.1255 9.34L19.1455 9.13V6.07H21.2355L21.3755 6.08L21.5855 6.11ZM15.1155 20.36L14.8855 20.69L14.8055 21.1L14.8855 21.51L15.1155 21.84L15.4455 22.07L15.8555 22.15L16.2655 22.07L16.5955 21.84L16.8255 21.51L16.9055 21.1L16.8255 20.69L16.5955 20.36L16.2655 20.13L15.8555 20.05L15.4455 20.13L15.1155 20.36Z" fill="#baa8ff"/>
</svg>
