<svg width="25" height="24" viewBox="0 0 25 24" fill="none"
    xmlns="http://www.w3.org/2000/svg">
    <path d="M14.7755 12.004C14.7755 12.5968 14.54 13.1654 14.1209 13.5847C13.7018 14.004 13.1333 14.2397 12.5405 14.24C11.9474 14.24 11.3787 14.0044 10.9594 13.5851C10.54 13.1657 10.3045 12.597 10.3045 12.004C10.3045 11.4111 10.5399 10.8425 10.959 10.4232C11.3781 10.0039 11.9466 9.76824 12.5395 9.76797C13.1325 9.76797 13.7012 10.0036 14.1206 10.4229C14.5399 10.8422 14.7755 11.411 14.7755 12.004ZM17.4235 1.31398C16.0775 1.31398 14.3165 2.27398 12.5355 3.93598C10.7555 2.28298 8.99347 1.33398 7.64847 1.33398C7.23847 1.33398 6.86547 1.42698 6.54247 1.61198C5.16747 2.40498 4.85947 4.87598 5.56947 7.97698C2.52547 8.91698 0.545471 10.42 0.545471 12.004C0.545471 13.594 2.53547 15.101 5.58847 16.034C4.88447 19.147 5.19847 21.622 6.57647 22.414C6.89647 22.601 7.26647 22.689 7.67847 22.689C9.02347 22.689 10.7855 21.729 12.5665 20.065C14.3465 21.719 16.1085 22.668 17.4535 22.668C17.8635 22.668 18.2365 22.578 18.5595 22.393C19.9335 21.601 20.2425 19.13 19.5325 16.028C22.5655 15.096 24.5455 13.59 24.5455 12.004C24.5455 10.414 22.5555 8.90698 19.5025 7.97198C20.2065 4.86198 19.8925 2.38498 18.5145 1.59198C18.1813 1.40477 17.8056 1.30887 17.4235 1.31398ZM17.4185 2.40398V2.40998C17.6435 2.40998 17.8245 2.45398 17.9765 2.53698C18.6425 2.91898 18.9315 4.37198 18.7065 6.24098C18.6525 6.70098 18.5645 7.18598 18.4565 7.68098C17.4339 7.43363 16.3959 7.25523 15.3495 7.14698C14.726 6.28718 14.0462 5.46972 13.3145 4.69998C14.9065 3.21998 16.4015 2.40798 17.4195 2.40498L17.4185 2.40398ZM7.64847 2.42398C8.66047 2.42398 10.1625 3.23198 11.7585 4.70398C11.0725 5.42398 10.3885 6.24098 9.73847 7.14598C8.6897 7.25375 7.64958 7.43351 6.62547 7.68398C6.51808 7.21499 6.43332 6.74111 6.37147 6.26398C6.14147 4.39598 6.42547 2.94398 7.08547 2.55698C7.27547 2.46698 7.48547 2.42898 7.64847 2.42398ZM12.5305 5.47398C12.9865 5.94331 13.4398 6.46464 13.8905 7.03798C13.4505 7.01798 13.0005 7.00398 12.5455 7.00398C12.0848 7.00331 11.6315 7.01464 11.1855 7.03798C11.6255 6.46598 12.0805 5.94298 12.5305 5.47398ZM12.5455 8.09998C13.2855 8.09998 14.0225 8.13398 14.7475 8.19298C15.1541 8.77564 15.5485 9.39564 15.9305 10.053C16.3018 10.6936 16.6411 11.3423 16.9485 11.999C16.6405 12.654 16.3025 13.309 15.9355 13.949C15.5555 14.609 15.1625 15.237 14.7555 15.819C13.2877 15.9476 11.8115 15.9493 10.3435 15.824C9.92398 15.2203 9.52932 14.5998 9.16047 13.964C8.78914 13.3233 8.4498 12.6746 8.14247 12.018C8.45129 11.3521 8.78928 10.7001 9.15547 10.064C9.53547 9.40398 9.92847 8.77798 10.3355 8.19598C11.0703 8.13072 11.8077 8.09802 12.5455 8.09798V8.09998ZM8.91047 8.35398C8.67047 8.73098 8.43047 9.11698 8.20647 9.51398C7.98247 9.90398 7.7708 10.2953 7.57147 10.688C7.30647 10.032 7.08147 9.37798 6.89547 8.74098C7.53547 8.59098 8.21047 8.45698 8.91047 8.35398ZM16.1705 8.35398C16.8665 8.45598 17.5351 8.58498 18.1765 8.74098C17.9965 9.37298 17.7715 10.023 17.5165 10.674C17.1083 9.87802 16.6594 9.10366 16.1715 8.35398H16.1705ZM19.2335 9.02898C19.7181 9.17964 20.1765 9.34564 20.6085 9.52698C22.3405 10.267 23.4605 11.235 23.4605 12.003C23.4555 12.771 22.3355 13.743 20.6035 14.478C20.1835 14.658 19.7235 14.82 19.2485 14.971C18.948 13.9544 18.5805 12.9589 18.1485 11.991C18.5985 10.974 18.9585 9.98098 19.2335 9.02698V9.02898ZM5.83847 9.03298C6.11647 9.99298 6.48347 10.99 6.93847 12.013C6.50902 12.9749 6.14616 13.9653 5.85247 14.977C5.36847 14.827 4.90847 14.659 4.48247 14.477C2.75047 13.74 1.63047 12.771 1.63047 12.003C1.63047 11.235 2.75047 10.261 4.48247 9.52698C4.90247 9.34698 5.36247 9.18498 5.83847 9.03298ZM17.5165 13.313C17.7815 13.97 18.0065 14.625 18.1925 15.261C17.5525 15.418 16.8765 15.551 16.1765 15.651C16.6636 14.8954 17.1102 14.115 17.5165 13.313ZM7.57147 13.333C7.77147 13.725 7.98147 14.116 8.21147 14.508C8.44147 14.8986 8.67647 15.2796 8.91647 15.651C8.24219 15.5534 7.5728 15.4246 6.91047 15.265C7.09047 14.635 7.31647 13.983 7.57047 13.332L7.57147 13.333ZM18.4655 16.32C18.5775 16.813 18.6655 17.288 18.7195 17.743C18.9495 19.611 18.6655 21.063 18.0055 21.451C17.8585 21.541 17.6675 21.579 17.4425 21.579C16.4305 21.579 14.9285 20.772 13.3325 19.299C14.0185 18.579 14.7025 17.763 15.3525 16.859C16.4595 16.741 17.5065 16.56 18.4655 16.32ZM6.63547 16.33C7.59547 16.564 8.64147 16.745 9.74247 16.862C10.4025 17.767 11.0875 18.589 11.7775 19.308C10.1825 20.791 8.68547 21.603 7.66747 21.603C7.47523 21.6039 7.28557 21.5586 7.11447 21.471C6.44847 21.091 6.15947 19.637 6.38447 17.768C6.43847 17.308 6.52747 16.824 6.63547 16.33ZM11.1955 16.97C11.6361 16.9913 12.0845 17.0026 12.5405 17.004C13.0011 17.0046 13.4545 16.9933 13.9005 16.97C13.4605 17.542 13.0055 18.065 12.5555 18.535C12.0995 18.0643 11.6461 17.5426 11.1955 16.97Z" fill="#baa8ff"/>
</svg>
