<svg width="25" height="24" viewBox="0 0 25 24" fill="none"
    xmlns="http://www.w3.org/2000/svg">
    <path d="M12.5455 0C19.1725 0 24.5455 5.373 24.5455 12C24.5455 18.627 19.1725 24 12.5455 24C5.91847 24 0.545471 18.627 0.545471 12C0.545471 5.373 5.91847 0 12.5455 0ZM10.1605 15.998C10.3355 16.643 10.3165 17.246 10.1365 17.79L10.0715 17.97C10.0468 18.0313 10.0208 18.09 9.99347 18.146C9.85347 18.436 9.66847 18.706 9.43847 18.956C8.74047 19.715 7.76647 20.003 7.34847 19.761C6.89847 19.499 7.12247 18.426 7.93247 17.571C8.80347 16.653 10.0525 16.062 10.0525 16.062V16.059L10.1605 15.998ZM20.0715 5.137C19.5295 3.004 15.9945 2.303 12.6495 3.492C10.6605 4.199 8.50547 5.31 6.95647 6.759C5.11347 8.48 4.82047 9.98 4.94147 10.607C5.36847 12.818 8.39847 14.264 9.64447 15.337V15.343C9.27747 15.523 6.58847 16.872 5.95847 18.268C5.28347 19.738 6.06347 20.789 6.57347 20.923C8.14847 21.359 9.76847 20.563 10.6385 19.274C11.4785 18.013 11.4045 16.393 11.0425 15.598C11.5385 15.463 12.1225 15.403 12.8725 15.494C14.9735 15.734 15.3935 17.054 15.3025 17.594C15.2125 18.133 14.7795 18.448 14.6285 18.538C14.4785 18.629 14.4335 18.658 14.4475 18.719C14.4625 18.809 14.5385 18.809 14.6575 18.794C14.8225 18.764 15.7535 18.344 15.7985 17.323C15.8435 16.033 14.6125 14.594 12.4235 14.623C11.5235 14.639 10.9525 14.714 10.5485 14.879C10.5203 14.8378 10.4847 14.8021 10.4435 14.774C9.09347 13.319 6.58847 12.299 6.69347 10.364C6.72347 9.659 6.97847 7.8 11.4935 5.55C15.1985 3.704 18.1545 4.215 18.6645 5.34C19.3975 6.944 17.0885 9.93 13.2335 10.364C11.7635 10.529 10.9985 9.96 10.8025 9.749C10.5935 9.524 10.5635 9.509 10.4885 9.555C10.3685 9.615 10.4435 9.81 10.4885 9.93C10.6085 10.23 11.0735 10.755 11.8845 11.025C12.5885 11.25 14.3145 11.384 16.3845 10.575C18.7085 9.676 20.5235 7.17 19.9985 5.07L20.0715 5.137Z" fill="#baa8ff"/>
</svg>
