<svg width="25" height="24" viewBox="0 0 25 24" fill="none"
    xmlns="http://www.w3.org/2000/svg">
    <path d="M12.5464 4.79999C9.34645 4.79999 7.34645 6.39999 6.54645 9.59999C7.74645 7.99999 9.14645 7.39999 10.7464 7.79999C11.6594 8.02799 12.3114 8.68999 13.0344 9.42399C14.2114 10.618 15.5724 12 18.5464 12C21.7464 12 23.7464 10.4 24.5464 7.19999C23.3464 8.79999 21.9464 9.39999 20.3464 8.99999C19.4334 8.77199 18.7814 8.10999 18.0584 7.37599C16.8824 6.18199 15.5214 4.79999 12.5464 4.79999ZM6.54645 12C3.34645 12 1.34645 13.6 0.546448 16.8C1.74645 15.2 3.14645 14.6 4.74645 15C5.65945 15.228 6.31145 15.89 7.03445 16.624C8.21145 17.818 9.57245 19.2 12.5464 19.2C15.7464 19.2 17.7464 17.6 18.5464 14.4C17.3464 16 15.9464 16.6 14.3464 16.2C13.4334 15.972 12.7814 15.31 12.0584 14.576C10.8824 13.382 9.52145 12 6.54645 12Z" fill="#baa8ff"/>
</svg>
