<svg width="24" height="24" viewBox="0 0 24 24" fill="none"
    xmlns="http://www.w3.org/2000/svg">
    <path d="M1.125 0C0.502 0 0 0.502 0 1.125V22.875C0 23.498 0.502 24 1.125 24H22.875C23.498 24 24 23.498 24 22.875V1.125C24 0.502 23.498 0 22.875 0H1.125ZM18.488 9.75C19.1 9.75 19.6423 9.787 20.115 9.861C20.5611 9.92799 20.9989 10.042 21.421 10.201V12.659C21.2182 12.5191 21.003 12.3983 20.778 12.298C20.546 12.1932 20.3063 12.1063 20.061 12.038C19.5965 11.9091 19.117 11.8419 18.635 11.838C18.335 11.838 18.062 11.8667 17.816 11.924C17.5967 11.9709 17.3864 12.0526 17.193 12.166C17.0237 12.27 16.8927 12.3947 16.8 12.54C16.7071 12.6864 16.6585 12.8566 16.66 13.03C16.66 13.226 16.712 13.4023 16.816 13.559C16.92 13.715 17.0677 13.863 17.259 14.003C17.546 14.213 17.682 14.279 17.955 14.413C18.2283 14.5483 18.537 14.687 18.881 14.829C19.351 15.0263 19.773 15.2357 20.147 15.457C20.521 15.679 20.842 15.93 21.11 16.21C21.378 16.4887 21.5827 16.8077 21.724 17.167C21.866 17.5257 21.9373 17.9433 21.938 18.42C21.938 19.0773 21.8137 19.6293 21.565 20.076C21.3238 20.5167 20.9759 20.8898 20.553 21.161C20.098 21.449 19.594 21.651 19.066 21.757C18.4993 21.877 17.9027 21.937 17.276 21.937C16.6589 21.9392 16.043 21.8843 15.436 21.773C14.9108 21.6828 14.4015 21.5167 13.924 21.28V18.65C14.8276 19.4193 15.9742 19.8444 17.161 19.85C17.4943 19.85 17.785 19.82 18.033 19.76C18.2817 19.7 18.4893 19.6167 18.656 19.51C18.822 19.402 18.9463 19.2753 19.029 19.13C19.1211 18.9601 19.163 18.7676 19.1499 18.5748C19.1368 18.382 19.0692 18.1969 18.955 18.041C18.8067 17.8441 18.625 17.6749 18.418 17.541C18.1616 17.3711 17.8917 17.2226 17.611 17.097C17.2782 16.9451 16.9425 16.7997 16.604 16.661C15.686 16.2777 15.0017 15.8093 14.551 15.256C14.1003 14.7027 13.875 14.0343 13.875 13.251C13.875 12.6377 13.998 12.1103 14.244 11.669C14.4893 11.2277 14.824 10.8647 15.248 10.58C15.6965 10.2843 16.1944 10.0712 16.718 9.951C17.2979 9.81392 17.8921 9.74645 18.488 9.75ZM3.375 9.938H12.938V12.104H9.506V21.75H6.789V12.104H3.375V9.938Z" fill="#baa8ff"/>
</svg>
